<svg xmlns="http://www.w3.org/2000/svg" viewBox="0 0 1843.98 1855.8"><defs><style>.a{fill:#101416;}</style></defs><title>1</title><path class="a" d="M1862.58,1313.64Q1922,1212.95,1922,1098.27q0-91.08-37.47-165T1773.2,803.07q-73.86-56.27-245.14-144.78-224.8-115.16-279.4-173t-54.59-127.39q0-91,78.15-159.5t200.18-68.51q117.75,0,199.64,68.51t116.14,218.38l9.64,2.14q6.42,0,16.06-4.28,3.21-17.11,5.35-78.14l4.28-95.27q0-10.68-8.56-81.36-61-43.89-118.82-63.16-79.26-24.62-188.4-24.62-198.08,0-315.79,103.3T1074.18,427.5c0,11.65.61,22.94,1.6,34h-2.24L748.12,474.32,440.9,479.67H292.1q-69.6,2.16-84.57,2.14h-30q-49.24-2.14-65.3-2.14a54.31,54.31,0,0,0-28.9,8.56c-2.14,5.72-3.21,10.35-3.21,13.92q0,9.63,12.74,18.2t83.42,21.94q70.67,13.4,87.33,29.45t16.68,58.92l-3.21,138.21v894.44q0,123.19-9.59,170.34-13.85,15-34.59,24.12T157.33,1876q-54.84,9.1-78.25,20.59L78,1922.68l21.38,5.22q81.18,0,144.25-9.63,91.9-15,174.19-15l201.92-4.13c9.37.32,19.42.68,31,1.15q113.45,5.37,199.11,5.35,25.69,0,73.86-1.07,3.21-10.68,3.21-16.06,0-7.47-11.77-17.13l-145.59-12.85q-37.49-5.35-59.95-11.78Q700,1824.3,700,1814.66q0-17.11,59.95-185.19s66-205,68.27-204.19C1073,1519.8,1216.94,1535.91,1413,1527.83c14.05,39.54,23.17,66.24,27.22,79.76q14.43,48.28,33.68,101.89,27.81,80.44,27.83,99.75,0,9.68-6.42,29-22.48,9.66-66.36,11.79l-112.37,7.51q-10.7,1.07-23.55,7.49a79.5,79.5,0,0,0-5.35,28.9,53,53,0,0,0,21.41,6.42h23.55q9.63,0,23,1.2t26.23,1.2l129.53-1.61,107,2.41q138.09,3.21,192.69,3.21,13.89,0,48.17-1.07,3.21-10.68,3.21-16.06c0-4.28-1.44-10.33-4.28-18.2q-19.27-9.63-68.51-23.55-13.92-4.26-48.71-12.85t-40.14-12.85q-18.22-15-39.61-61.55t-89.92-250l-1.78-4.91c51-8.32,95.63-21.57,133-40.47Q1803.13,1414.38,1862.58,1313.64ZM445.18,609.2V593.14q0-36.37,22.45-46,33.12-15,84.43-15l83.38,1.07q13.87,0,75.87-3.75t133.6-3.75q151.79,0,215.91,24.62a80.44,80.44,0,0,1,18.56,10.79q-13.76,40.49-25.08,70.68-89.94,237.65-113.5,304L840.15,1217.34c-16.43,47.1-49.57,137.06-51.4,136-33.09-20.19-197.94-111.65-340.37-109-.67,0,0-63.49,0-63.49,0-.24.13-.7.14-1V1077.53a512.46,512.46,0,0,1-3.35-56.2l3.21-291.17Q448.39,663.79,445.18,609.2ZM747,1467.83Q677.39,1668,621.7,1777.2c-15.78,29.71-34.54,51.11-55.9,65.13-9.21-1.57-18.54-2.87-28-3.81q-59.41-5.87-81.89-24.09Q447.3,1792,447.32,1777l1.21-200.53v80l.93-153.88q-.17-15-.31-28l.31-52c-.08-7.58-.16-14.59-.24-21.32l.24-39.58c-.44-38.45-2.91-84.87-.91-84.75,88.57,5.46,203.48,34.46,321.62,118.22C764.42,1411.37,754.77,1445.5,747,1467.83Zm93.41-89.59c-1.5-2.36,47.27-152.19,47.27-152.19l-.23-.15c.32-.73,20-64,30-91.5s19.64-55.1,28.95-82.93q30-93.06,98.62-260,40.72-97.35,47.16-110.2l10.69,19.27,97.29,247.17q7.49,19.27,77,205.44c7.61,19.95,14.32,41.4,20.5,63.74l27.9,73.15.79.11c27.69,75,70.94,186,68.17,186.22C1214.79,1487.58,1039.74,1456.43,840.41,1378.24ZM1636.71,1422a330,330,0,0,1-87.17,28.68l-64.83-178.71L1322.19,832q-16-40.19-28.67-73.08C1337.32,786.15,1399.85,821,1482,863.71q184.07,95.81,245.14,167.53t61,158.43q0,63.18-40.14,130.06T1636.71,1422Z" transform="translate(-78.01 -72.1)"/></svg>